<div className="flex items-center">
            <svg
              width="63px"
              height="63px"
              viewBox="0 0 128 128"
              aria-hidden="true"
              role="img"
              class="iconify iconify--noto"
              preserveAspectRatio="xMidYMid meet"
            >
              <path
                d="M115.37 117.77L77.78 17.81a2.242 2.242 0 0 0-2.1-1.45H52.32c-.94 0-1.77.58-2.1 1.45l-37.59 99.96c-.26.69-.17 1.46.25 2.06s1.1.97 1.84.97h24.64c.96 0 1.82-.62 2.13-1.54l5.7-17.18H80.8l5.71 17.18c.3.92 1.16 1.54 2.13 1.54h24.64a2.236 2.236 0 0 0 2.09-3.03zm-61.14-36.9L64 51.45l9.77 29.43H54.23z"
                fill="#ffffff"
              />
            </svg>
            <svg
              className="-ml-5 mt-1"
              width="55px"
              height="60px"
              viewBox="0 0 64 64"
              aria-hidden="true"
              role="img"
              class="iconify iconify--emojione-monotone"
              preserveAspectRatio="xMidYMid meet"
            >
              <g fill-rule="evenodd">
                <path
                  d="M30.249 2.065C18.612 2.789 12.531 9.379 12 21.296h11.739c.147-4.128 2.451-7.214 6.741-7.669c4.211-.447 8.206.556 9.416 3.435c1.307 3.11-1.627 6.724-3.022 8.241c-2.582 2.813-6.776 4.865-8.95 7.9c-2.131 2.974-2.51 6.887-2.674 11.676h10.346c.145-3.062.349-5.995 1.742-7.898c2.266-3.092 5.65-4.541 8.486-6.983c2.709-2.334 5.559-5.147 6.043-9.501C53.32 7.466 42.683 1.289 30.249 2.065"
                  fill="#ffffff"
                ></path>

                <ellipse
                  cx="30.515"
                  cy="55.567"
                  rx="6.532"
                  ry="6.433"
                  fill="#ffffff"
                ></ellipse>
              </g>
            </svg>
          